<svg width="560" height="560" viewBox="0 0 560 560" fill="none" xmlns="http://www.w3.org/2000/svg">
<path d="M280 560C434.64 560 560 434.64 560 280C560 125.36 434.64 0 280 0C125.36 0 0 125.36 0 280C0 434.64 125.36 560 280 560Z" fill="white"/>
<path fill-rule="evenodd" clip-rule="evenodd" d="M262.622 326.497C262.622 318.447 262.657 310.415 262.605 302.382C262.587 300.142 263.235 298.427 265.318 297.517C267.243 296.677 269.255 297.273 270.935 299.233C275.94 305.078 280.91 310.957 285.897 316.837C287.647 318.885 289.415 320.915 291.113 323.032C291.511 323.532 291.744 324.144 291.778 324.782C291.812 333.27 291.83 341.757 291.795 350.227C291.841 353.962 290.478 357.576 287.977 360.349C285.476 363.123 282.022 364.851 278.302 365.19C274.586 365.428 270.918 364.25 268.035 361.893C265.152 359.536 263.268 356.174 262.763 352.485C262.605 351.522 262.622 350.525 262.622 349.545V326.497ZM262.675 168.822C262.658 168.472 262.622 168.14 262.622 167.79V119.98C262.64 112.63 267.68 106.435 274.505 105.227C276.61 104.836 278.775 104.914 280.847 105.456C282.918 105.998 284.844 106.991 286.487 108.363C288.131 109.735 289.451 111.454 290.353 113.395C291.255 115.337 291.718 117.454 291.708 119.595C291.883 135.887 291.777 152.197 291.812 168.49L291.725 169.33C288.33 163.52 283.64 160.615 277.235 160.632C270.9 160.632 266.175 163.432 262.675 168.822ZM262.622 389.55C266.192 394.975 270.952 397.74 277.34 397.722C283.71 397.705 288.347 394.8 291.812 389.41V429.905C291.795 433.877 291.917 437.885 291.567 441.805C291.229 445.545 289.453 449.008 286.613 451.465C283.774 453.923 280.092 455.184 276.343 454.982C272.643 454.735 269.176 453.095 266.636 450.394C264.097 447.693 262.676 444.13 262.657 440.422C262.57 424.795 262.622 409.167 262.622 393.522V389.55ZM291.812 235.095V264.162C291.812 266.927 290.937 268.432 288.837 269.272C287.751 269.72 286.549 269.801 285.412 269.504C284.275 269.208 283.266 268.549 282.538 267.628L269.867 252.787C267.68 250.232 265.493 247.695 263.34 245.087C262.927 244.593 262.682 243.98 262.64 243.337C262.605 230.842 262.588 218.33 262.64 205.835C262.617 202.145 263.983 198.581 266.466 195.851C268.95 193.121 272.369 191.425 276.045 191.1C282.958 190.33 289.818 195.475 291.427 202.72C291.69 203.927 291.778 205.187 291.778 206.43C291.812 215.985 291.812 225.54 291.812 235.095ZM322.105 175.997V137.147C322.14 130.112 326.148 124.372 332.378 122.412C341.827 119.42 351.277 126.56 351.33 136.85C351.383 146.545 351.33 156.24 351.33 165.917V214.83C351.33 222.057 346.99 227.902 340.357 229.705C331.73 232.033 322.928 225.68 322.21 216.597C322.146 215.706 322.117 214.813 322.122 213.92V175.997H322.105ZM233.835 363.3V408.188C233.9 411.695 232.717 415.112 230.495 417.827C228.273 420.543 225.159 422.38 221.707 423.01C213.307 424.62 204.925 417.795 204.68 409.062C204.61 406.56 204.662 404.057 204.662 401.555V318.378C204.662 311.395 209.142 305.497 215.652 303.817C217.81 303.273 220.064 303.229 222.242 303.69C224.419 304.15 226.462 305.102 228.215 306.474C229.968 307.845 231.384 309.599 232.355 311.601C233.326 313.604 233.826 315.802 233.818 318.027C233.87 333.113 233.818 348.215 233.818 363.3H233.835ZM233.835 197.995V259.227C233.901 262.624 232.795 265.939 230.705 268.616C228.614 271.293 225.666 273.168 222.355 273.927C220.234 274.379 218.039 274.353 215.93 273.852C213.82 273.351 211.848 272.388 210.156 271.031C208.465 269.674 207.096 267.959 206.149 266.008C205.202 264.058 204.7 261.921 204.68 259.753C204.593 250.897 204.663 242.06 204.645 233.205V136.85C204.645 129.64 209.335 123.62 216.073 122.097C218.214 121.627 220.435 121.645 222.569 122.15C224.703 122.655 226.696 123.634 228.4 125.014C230.105 126.393 231.477 128.139 232.414 130.122C233.352 132.104 233.832 134.272 233.818 136.465C233.87 152.197 233.818 167.912 233.818 183.645L233.835 197.995ZM322.105 341.25V274.75C322.105 268.117 324.94 263.2 330.855 260.435C340.34 256.042 350.98 263.06 351.33 273.788V407.627C351.33 414.942 347.147 420.752 340.55 422.642C331.905 425.127 322.945 418.792 322.21 409.675C322.144 408.743 322.115 407.809 322.122 406.875V341.215L322.105 341.25ZM411.25 273.595V377.545C411.336 381.009 410.209 384.394 408.066 387.116C405.922 389.838 402.895 391.726 399.508 392.455C390.898 394.327 382.323 387.45 382.077 378.473V169.872C382.077 163.135 385.455 157.762 391.16 155.382C400.785 151.357 411.233 158.602 411.233 169.347V273.577L411.25 273.595ZM177.922 273.437V377.545C177.922 384.895 173.373 390.792 166.513 392.42C157.763 394.52 148.995 387.625 148.75 378.438V169.54C148.75 162.382 153.037 156.572 159.6 154.752C161.753 154.187 164.007 154.121 166.189 154.56C168.371 154.999 170.424 155.931 172.191 157.286C173.957 158.64 175.391 160.381 176.381 162.374C177.371 164.368 177.893 166.562 177.905 168.787C177.993 180.25 177.922 191.73 177.922 203.21V273.42V273.437Z" fill="#111827"/>
</svg>
